<svg version="1.1" xmlns="http://www.w3.org/2000/svg"
 width="800" height="440" viewBox="0 0 3020.000000 1655.000000"
 preserveAspectRatio="xMidYMid meet">
<g transform="translate(0.000000,1655.000000) scale(0.100000,-0.100000)"
fill="#004AAD" stroke="none">
<path d="M10050 10632 c-96 -36 -192 -129 -236 -229 -13 -27 -17 -66 -17 -138
-1 -88 3 -107 26 -155 36 -75 109 -153 182 -192 54 -29 70 -32 165 -36 90 -3
113 -1 159 17 81 33 138 78 186 151 35 53 45 79 55 143 15 89 2 198 -27 245
-62 97 -127 156 -213 192 -53 22 -224 23 -280 2z M16840 10632 c-74 -28 -109
-51 -157 -100 -58 -61 -81 -107 -98 -197 -33 -173 44 -334 199 -413 69 -35 74
-36 186 -36 109 0 118 1 176 31 124 64 209 208 209 353 -1 65 -5 85 -37 152
-43 92 -109 160 -188 196 -73 33 -221 41 -290 14z M8873 10570 c-204 -5 -213
-6 -235 -28 l-23 -23 -2 -727 c-2 -601 -4 -727 -16 -730 -7 -1 -28 19 -47 45
-75 108 -208 213 -370 294 -173 87 -442 120 -677 85 -135 -21 -203 -36 -248
-57 -22 -9 -70 -31 -107 -47 -110 -50 -222 -127 -338 -234 -43 -39 -150 -160
-150 -169 0 -5 -15 -30 -34 -56 -94 -134 -180 -356 -217 -558 -33 -180 -33
-488 0 -675 41 -233 137 -467 255 -625 53 -70 182 -206 245 -258 49 -40 205
-135 248 -151 21 -8 74 -27 118 -44 75 -28 127 -38 335 -63 126 -15 241 -4
429 43 175 44 383 183 502 335 62 79 85 97 94 71 2 -7 8 -84 12 -172 l9 -159
32 -28 32 -29 216 0 216 0 29 29 c24 25 29 38 29 78 0 26 -5 66 -10 88 -5 23
-10 802 -11 1870 -2 1007 -6 1840 -11 1852 -15 46 -39 50 -305 43z m-890
-1603 c17 -8 54 -19 82 -26 114 -28 299 -170 385 -296 42 -63 90 -155 90 -176
0 -8 4 -19 8 -25 12 -14 40 -110 57 -198 19 -101 19 -309 0 -428 -15 -94 -43
-195 -57 -212 -4 -6 -8 -17 -8 -25 0 -22 -48 -113 -97 -186 -81 -121 -260
-261 -373 -293 -245 -69 -337 -69 -544 -1 -230 75 -441 303 -513 554 -55 193
-57 204 -56 390 0 141 4 192 17 235 10 30 24 80 33 110 35 129 125 276 233
380 60 59 99 87 179 128 56 29 113 52 127 52 14 0 34 5 45 10 56 31 326 35
392 7z M3489 10563 c-8 -2 -20 -18 -27 -36 -16 -48 -20 -3833 -4 -3864 30 -56
-34 -53 1306 -51 l1234 3 26 24 26 24 0 212 c0 200 -1 214 -21 239 l-20 26
-977 2 -977 3 0 605 0 605 871 3 871 2 24 26 c24 25 24 27 24 244 0 200 -2
220 -19 239 l-19 21 -872 0 c-787 0 -873 2 -879 16 -8 20 -8 1098 0 1118 6 14
100 16 968 16 841 1 963 3 981 16 19 14 20 28 23 244 3 220 2 230 -17 249 -21
21 -23 21 -1263 20 -684 -1 -1250 -3 -1259 -6z M13767 10558 c-11 -9 -19 -42
-27 -115 -15 -145 -26 -200 -50 -268 -12 -33 -25 -73 -29 -90 -12 -43 -87
-181 -132 -242 -56 -75 -156 -170 -217 -207 -116 -68 -168 -95 -180 -96 -8 0
-28 -6 -45 -14 -74 -31 -93 -38 -161 -52 -138 -30 -265 -39 -561 -39 l-300 0
-5 392 -5 391 -24 26 -24 26 -223 0 -222 0 -17 -26 c-13 -20 -18 -63 -25 -197
-16 -328 -62 -571 -111 -598 -10 -5 -99 -9 -199 -9 -100 0 -200 -5 -224 -11
-68 -17 -76 -44 -76 -250 0 -181 9 -227 48 -248 13 -7 108 -11 261 -11 222 0
241 -1 250 -18 6 -11 11 -320 14 -798 3 -511 8 -793 15 -819 6 -22 17 -67 25
-100 32 -128 38 -145 58 -182 42 -75 110 -163 163 -210 62 -54 169 -121 206
-129 14 -3 41 -11 60 -18 79 -30 118 -39 214 -52 130 -17 241 -17 396 1 118
13 214 39 246 66 18 15 18 75 -1 204 -8 55 -15 123 -15 151 0 36 -6 59 -19 75
-17 22 -26 24 -88 21 -37 -1 -104 -8 -149 -16 -138 -22 -303 10 -392 77 -37
28 -82 88 -100 132 -39 99 -41 139 -42 865 -1 388 -1 715 -1 726 1 22 2 22
379 28 453 7 535 15 750 80 28 9 73 22 100 30 65 19 210 88 286 136 35 22 68
40 73 40 6 0 17 7 24 16 8 9 32 28 54 42 107 67 303 293 378 436 21 38 41 74
45 80 7 10 51 118 87 216 32 87 75 352 75 465 0 109 11 105 -281 105 -181 0
-249 -3 -262 -12z M14275 9610 c-14 -22 -25 -42 -25 -45 0 -3 -27 -45 -59 -93
-105 -153 -283 -336 -399 -410 -23 -15 -45 -36 -48 -47 -2 -11 -3 -543 -2
-1182 l3 -1163 28 -27 27 -28 1138 -3 c625 -1 1152 0 1171 3 18 4 44 17 57 30
24 24 24 26 24 238 0 210 0 214 -23 235 l-23 22 -896 0 c-802 0 -898 2 -912
16 -14 14 -16 141 -16 1255 0 809 -3 1239 -10 1239 -5 0 -21 -18 -35 -40z
M19350 9504 c-76 -8 -188 -27 -245 -41 -81 -20 -235 -95 -309 -151 -71 -53
-185 -168 -228 -230 -52 -76 -61 -61 -76 128 -8 91 -19 176 -25 190 -22 45
-48 50 -260 50 -215 0 -249 -7 -267 -55 -6 -15 -6 -126 0 -287 6 -145 10 -752
9 -1349 -1 -782 2 -1093 10 -1108 6 -11 20 -25 31 -31 11 -6 109 -10 243 -10
222 0 224 0 250 24 14 13 28 39 31 57 3 19 7 369 9 779 3 660 6 751 20 795 9
28 17 66 17 85 0 156 168 435 308 513 11 7 45 26 75 44 31 18 68 35 84 39 15
3 48 13 71 20 92 30 318 27 380 -5 9 -5 35 -14 57 -20 85 -22 210 -130 269
-231 66 -112 87 -183 97 -319 4 -69 8 -484 9 -922 l0 -796 23 -20 c44 -41 60
-43 277 -43 181 0 216 2 241 17 15 9 31 24 35 32 3 9 5 419 5 911 -2 915 -4
970 -42 1110 -5 19 -18 73 -29 119 -36 150 -131 316 -246 428 -102 98 -269
196 -392 228 -135 34 -343 58 -432 49z M25515 9494 c-225 -38 -406 -98 -532
-175 -35 -22 -66 -39 -69 -39 -9 0 -145 -111 -203 -165 -57 -53 -143 -156
-199 -240 -40 -58 -132 -238 -132 -258 0 -7 -4 -17 -9 -22 -4 -6 -13 -28 -19
-50 -6 -22 -19 -71 -30 -110 -38 -139 -47 -215 -47 -420 0 -229 6 -275 66
-485 22 -75 110 -267 171 -371 41 -69 131 -181 186 -231 37 -33 197 -153 248
-185 122 -79 345 -156 494 -173 41 -5 113 -14 160 -20 139 -19 460 16 590 65
19 8 67 25 105 39 177 65 400 235 551 421 39 47 119 183 154 260 17 39 35 79
40 90 18 39 39 111 60 205 11 52 25 109 30 125 15 50 22 313 11 425 -5 58 -17
133 -25 168 -9 34 -22 88 -30 120 -26 107 -29 115 -100 262 -115 238 -314 456
-523 571 -32 18 -65 38 -73 44 -29 22 -236 103 -295 114 -260 52 -427 62 -580
35z m301 -508 c51 -8 101 -19 112 -25 12 -6 29 -11 40 -11 61 0 225 -101 322
-199 113 -114 173 -224 245 -449 24 -76 24 -479 -1 -556 -42 -133 -81 -226
-116 -280 -21 -32 -38 -62 -38 -66 0 -17 -160 -171 -220 -212 -71 -48 -94 -59
-178 -87 -165 -55 -295 -64 -440 -32 -96 22 -232 66 -241 78 -3 4 -32 25 -64
47 -60 40 -207 190 -207 211 0 6 -9 20 -19 29 -33 30 -109 218 -131 322 -38
184 -23 502 32 644 36 96 103 213 163 288 36 45 69 82 73 82 4 0 27 18 52 40
25 22 54 43 65 46 11 4 34 17 50 29 56 42 162 79 285 100 100 17 110 17 216 1z
M22095 9484 c-281 -45 -502 -154 -704 -349 -61 -58 -118 -126 -162 -193 -38
-57 -69 -106 -69 -109 0 -3 -18 -45 -40 -94 -22 -49 -44 -106 -49 -126 -6 -21
-19 -69 -30 -108 -37 -131 -51 -244 -51 -412 0 -202 13 -295 66 -462 8 -25 14
-51 14 -58 0 -16 30 -87 66 -154 13 -26 24 -52 24 -58 0 -6 20 -40 44 -75 24
-35 45 -68 47 -74 8 -23 157 -176 218 -224 66 -52 217 -148 234 -148 5 0 36
-13 70 -28 145 -67 292 -94 512 -94 217 1 341 24 493 93 34 16 64 29 67 29 3
0 47 31 98 69 87 65 119 95 215 201 22 25 44 41 48 37 13 -13 4 -373 -11 -445
-8 -37 -15 -78 -15 -92 0 -33 -34 -138 -60 -189 -11 -22 -20 -47 -20 -55 0
-23 -113 -169 -159 -205 -53 -42 -110 -81 -118 -81 -4 0 -14 -6 -22 -14 -21
-18 -183 -72 -241 -81 -25 -3 -67 -10 -95 -14 -49 -8 -205 1 -315 17 -232 35
-432 171 -525 357 l-40 80 -45 -1 c-25 0 -70 -8 -100 -17 -141 -42 -168 -49
-210 -58 -25 -6 -54 -14 -65 -19 -11 -5 -29 -11 -40 -14 -33 -9 -58 -62 -52
-107 7 -56 83 -203 143 -279 46 -59 160 -163 254 -231 57 -42 218 -115 330
-149 58 -18 119 -36 135 -42 49 -16 281 -37 415 -38 151 0 323 15 405 36 288
74 475 173 646 344 123 123 189 222 266 400 46 107 97 336 107 480 3 47 6 667
7 1378 l2 1293 -23 24 -23 25 -223 0 c-285 0 -269 12 -286 -223 -6 -83 -15
-156 -19 -162 -6 -6 -16 0 -26 15 -32 48 -199 206 -256 244 -85 55 -206 113
-278 131 -170 44 -390 56 -554 29z m394 -504 c72 -10 96 -16 191 -48 157 -53
354 -231 428 -385 71 -149 96 -267 96 -447 0 -186 -27 -310 -101 -455 -92
-180 -259 -328 -428 -379 -33 -10 -69 -23 -80 -29 -29 -16 -310 -21 -365 -7
-25 6 -61 15 -80 19 -53 12 -161 64 -226 109 -123 84 -215 195 -279 336 -64
140 -69 170 -69 396 0 179 3 215 22 283 61 221 216 419 408 519 49 26 110 50
134 54 25 4 54 11 64 17 17 8 120 23 186 25 14 1 58 -3 99 -8z M9961 9437
c-13 -6 -34 -25 -45 -40 l-21 -28 -3 -1332 c-2 -990 0 -1338 9 -1359 6 -15 26
-37 44 -48 30 -18 50 -20 242 -20 202 0 211 1 244 23 l34 23 3 1361 2 1362
-34 35 -33 36 -209 0 c-146 0 -216 -4 -233 -13z M16718 9433 c-15 -10 -30 -23
-33 -31 -7 -19 -7 -2724 0 -2744 15 -40 63 -48 275 -48 209 0 230 4 262 44 16
20 18 107 18 1376 0 1257 -1 1357 -17 1380 -9 14 -22 28 -27 32 -6 4 -110 8
-231 8 -189 -1 -224 -3 -247 -17z M16657 5120 c-45 -14 -66 -48 -66 -105 0
-72 32 -107 103 -113 45 -4 57 -1 81 20 24 21 29 34 33 84 4 55 2 61 -26 87
-32 30 -81 41 -125 27z M11961 5106 c-8 -9 -10 -221 -9 -777 l3 -764 75 0 75
0 3 764 c1 556 -1 768 -9 777 -7 9 -33 14 -69 14 -36 0 -62 -5 -69 -14z M8335
5034 c-27 -7 -58 -18 -67 -24 -10 -5 -26 -10 -36 -10 -28 0 -150 -96 -185
-147 -35 -49 -42 -69 -57 -160 -8 -47 -7 -77 5 -133 20 -97 63 -156 155 -215
42 -26 255 -103 320 -115 130 -24 286 -80 347 -126 17 -13 41 -40 53 -60 31
-49 32 -143 2 -201 -21 -40 -86 -103 -107 -103 -5 0 -22 -7 -37 -14 -51 -27
-205 -40 -304 -27 -152 19 -254 59 -351 137 -23 19 -46 34 -51 34 -14 0 -74
-111 -68 -126 7 -19 106 -89 157 -112 24 -11 80 -33 124 -48 78 -28 85 -29
282 -29 148 0 205 3 215 13 6 6 20 12 30 12 29 0 149 68 192 108 56 54 80 98
100 182 27 119 3 229 -68 308 -30 33 -145 112 -163 112 -3 0 -19 6 -36 14 -30
13 -75 26 -157 46 -19 4 -48 13 -65 18 -16 6 -57 18 -90 27 -173 47 -247 87
-290 154 -20 33 -25 53 -25 104 0 82 24 131 87 178 77 58 137 73 289 72 149
-1 203 -14 323 -75 69 -36 75 -37 92 -22 27 25 50 99 36 117 -27 33 -101 67
-211 96 -105 28 -130 31 -254 30 -78 -1 -158 -7 -187 -15z M15187 4923 c-4 -3
-7 -56 -7 -117 0 -61 -4 -116 -8 -123 -5 -8 -41 -13 -97 -15 l-90 -3 0 -60 0
-60 85 -3 c47 -2 89 -7 95 -13 6 -6 12 -158 15 -397 5 -373 6 -388 27 -427 25
-46 71 -92 128 -126 36 -21 52 -23 165 -24 115 0 129 2 170 25 53 30 61 55 33
109 -25 49 -31 52 -70 29 -20 -12 -59 -22 -96 -25 -84 -6 -142 23 -174 87 -22
44 -22 51 -20 400 l2 355 149 3 c90 1 155 7 163 14 7 6 13 31 13 59 0 60 4 58
-185 62 l-140 2 -6 125 c-3 69 -7 126 -8 128 -3 5 -138 1 -144 -5z M10325
4673 c-113 -25 -236 -98 -305 -180 -48 -58 -105 -165 -113 -217 -3 -17 -11
-58 -17 -91 -30 -159 57 -394 187 -502 41 -35 85 -59 212 -117 14 -6 85 -11
170 -11 l146 0 97 47 c111 53 193 125 247 218 51 87 80 271 62 387 -29 184
-95 291 -239 387 -94 62 -186 86 -322 85 -58 -1 -114 -3 -125 -6z m207 -134
c126 -27 226 -107 284 -228 35 -73 37 -81 38 -186 1 -151 -23 -213 -123 -318
-86 -91 -208 -129 -341 -106 -41 7 -86 19 -100 26 -14 7 -30 13 -35 13 -24 0
-125 110 -154 169 -55 108 -63 288 -17 391 34 78 110 162 177 195 98 50 179
63 271 44z M18115 4666 c-72 -19 -103 -33 -165 -74 -111 -73 -161 -141 -224
-302 -31 -80 -30 -269 2 -353 61 -159 153 -267 278 -326 38 -18 80 -38 93 -44
15 -8 81 -12 175 -12 161 0 149 -3 281 62 94 46 208 176 248 284 40 106 40
330 0 431 -60 154 -207 288 -361 328 -88 23 -248 26 -327 6z m248 -131 c72
-19 126 -46 173 -88 39 -34 104 -127 104 -149 0 -7 7 -26 16 -43 22 -42 21
-232 -1 -274 -8 -17 -15 -36 -15 -43 0 -24 -35 -77 -82 -126 -175 -180 -483
-153 -617 53 -39 61 -49 88 -61 174 -15 100 0 233 32 289 59 101 144 170 248
201 25 7 50 15 55 16 27 8 97 3 148 -10z M20155 4657 c-68 -22 -148 -67 -172
-97 -6 -8 -18 -24 -26 -35 -26 -34 -45 -5 -44 65 1 33 -3 64 -9 70 -6 6 -38
10 -75 8 l-64 -3 -3 -553 -2 -553 77 3 78 3 6 340 c3 187 10 354 14 370 12 43
63 135 92 167 29 31 109 72 168 87 55 15 163 13 205 -2 91 -33 164 -96 176
-150 3 -18 10 -36 14 -42 19 -26 23 -84 29 -415 l6 -355 69 -3 c38 -2 73 1 77
5 4 4 4 189 0 410 l-7 402 -39 76 c-54 107 -130 175 -228 204 -99 29 -244 28
-342 -2z M21961 4664 c-121 -32 -195 -87 -239 -177 -43 -89 -44 -157 -3 -242
29 -61 53 -88 106 -117 46 -25 175 -67 225 -73 172 -22 290 -63 335 -117 37
-44 36 -123 -3 -165 -98 -110 -399 -106 -597 7 l-53 30 -19 -23 c-10 -13 -27
-40 -37 -59 -17 -31 -18 -39 -6 -53 18 -22 78 -50 185 -88 86 -30 97 -31 255
-32 158 0 168 1 235 28 158 63 225 150 225 293 0 91 -37 156 -123 214 -61 42
-78 48 -189 69 -134 25 -223 47 -250 62 -10 5 -25 9 -35 9 -26 0 -92 50 -109
81 -43 85 14 178 140 224 100 37 342 0 418 -63 26 -21 52 -6 78 45 27 54 22
67 -36 100 -100 57 -372 82 -503 47z M13121 4656 c-14 -16 -8 -670 7 -762 19
-118 103 -242 193 -286 109 -53 109 -53 254 -53 l140 1 73 37 c41 21 93 56
116 78 24 21 48 39 54 39 7 0 12 -28 14 -72 l3 -73 70 0 70 0 0 550 0 550 -75
0 -75 0 -6 -345 c-6 -359 -8 -373 -54 -459 -83 -153 -307 -212 -482 -125 -60
30 -61 31 -102 107 -38 71 -39 83 -46 485 -2 178 -7 327 -10 333 -10 15 -131
11 -144 -5z M16627 4663 c-4 -3 -7 -253 -7 -555 l0 -549 78 3 77 3 3 530 c1
292 0 540 -3 553 -5 20 -11 22 -74 22 -37 0 -71 -3 -74 -7z"/>
</g>
</svg>